<mxfile host="app.diagrams.net" modified="2024-06-14T15:23:12.073Z" agent="Mozilla/5.0 (Windows NT 10.0; Win64; x64) AppleWebKit/537.36 (KHTML, like Gecko) Chrome/126.0.0.0 Safari/537.36" etag="tZkOldWwDBgqBR3Xw33i" version="24.5.4" type="github">
  <diagram name="Page-1" id="5f0bae14-7c28-e335-631c-24af17079c00">
    <mxGraphModel dx="993" dy="497" grid="1" gridSize="10" guides="1" tooltips="1" connect="1" arrows="1" fold="1" page="1" pageScale="1" pageWidth="1100" pageHeight="850" background="none" math="0" shadow="0">
      <root>
        <mxCell id="0" />
        <mxCell id="1" parent="0" />
        <mxCell id="Xe0wiIXYGhP834AWc3GN-1" value="" style="shape=actor;whiteSpace=wrap;html=1;" vertex="1" parent="1">
          <mxGeometry x="100" y="320" width="40" height="60" as="geometry" />
        </mxCell>
        <mxCell id="Xe0wiIXYGhP834AWc3GN-3" value="" style="shape=actor;whiteSpace=wrap;html=1;" vertex="1" parent="1">
          <mxGeometry x="100" y="200" width="40" height="60" as="geometry" />
        </mxCell>
        <mxCell id="Xe0wiIXYGhP834AWc3GN-13" style="edgeStyle=orthogonalEdgeStyle;rounded=0;orthogonalLoop=1;jettySize=auto;html=1;exitX=1;exitY=0.5;exitDx=0;exitDy=0;exitPerimeter=0;" edge="1" parent="1" source="Xe0wiIXYGhP834AWc3GN-4" target="Xe0wiIXYGhP834AWc3GN-10">
          <mxGeometry relative="1" as="geometry" />
        </mxCell>
        <mxCell id="Xe0wiIXYGhP834AWc3GN-4" value="Web" style="shape=display;whiteSpace=wrap;html=1;" vertex="1" parent="1">
          <mxGeometry x="140" y="240" width="80" height="40" as="geometry" />
        </mxCell>
        <mxCell id="Xe0wiIXYGhP834AWc3GN-14" style="edgeStyle=orthogonalEdgeStyle;rounded=0;orthogonalLoop=1;jettySize=auto;html=1;exitX=1;exitY=0.5;exitDx=0;exitDy=0;exitPerimeter=0;" edge="1" parent="1" source="Xe0wiIXYGhP834AWc3GN-5" target="Xe0wiIXYGhP834AWc3GN-10">
          <mxGeometry relative="1" as="geometry" />
        </mxCell>
        <mxCell id="Xe0wiIXYGhP834AWc3GN-5" value="Mobile" style="shape=display;whiteSpace=wrap;html=1;" vertex="1" parent="1">
          <mxGeometry x="140" y="360" width="80" height="40" as="geometry" />
        </mxCell>
        <mxCell id="Xe0wiIXYGhP834AWc3GN-7" value="" style="shape=datastore;whiteSpace=wrap;html=1;" vertex="1" parent="1">
          <mxGeometry x="640" y="170" width="60" height="60" as="geometry" />
        </mxCell>
        <mxCell id="Xe0wiIXYGhP834AWc3GN-8" value="" style="shape=datastore;whiteSpace=wrap;html=1;" vertex="1" parent="1">
          <mxGeometry x="640" y="310" width="60" height="60" as="geometry" />
        </mxCell>
        <mxCell id="Xe0wiIXYGhP834AWc3GN-9" value="" style="shape=datastore;whiteSpace=wrap;html=1;" vertex="1" parent="1">
          <mxGeometry x="640" y="440" width="60" height="60" as="geometry" />
        </mxCell>
        <mxCell id="Xe0wiIXYGhP834AWc3GN-12" style="edgeStyle=orthogonalEdgeStyle;rounded=0;orthogonalLoop=1;jettySize=auto;html=1;exitX=1;exitY=0.5;exitDx=0;exitDy=0;entryX=0;entryY=0.5;entryDx=0;entryDy=0;" edge="1" parent="1" source="Xe0wiIXYGhP834AWc3GN-10" target="Xe0wiIXYGhP834AWc3GN-11">
          <mxGeometry relative="1" as="geometry" />
        </mxCell>
        <mxCell id="Xe0wiIXYGhP834AWc3GN-10" value="Api Gateway" style="shape=offPageConnector;whiteSpace=wrap;html=1;" vertex="1" parent="1">
          <mxGeometry x="260" y="280" width="80" height="80" as="geometry" />
        </mxCell>
        <mxCell id="Xe0wiIXYGhP834AWc3GN-11" value="" style="rhombus;whiteSpace=wrap;html=1;" vertex="1" parent="1">
          <mxGeometry x="380" y="280" width="80" height="80" as="geometry" />
        </mxCell>
        <mxCell id="Xe0wiIXYGhP834AWc3GN-19" value="Module" style="shape=module;align=left;spacingLeft=20;align=center;verticalAlign=top;whiteSpace=wrap;html=1;" vertex="1" parent="1">
          <mxGeometry x="500" y="445" width="100" height="50" as="geometry" />
        </mxCell>
        <mxCell id="Xe0wiIXYGhP834AWc3GN-20" value="Module" style="shape=module;align=left;spacingLeft=20;align=center;verticalAlign=top;whiteSpace=wrap;html=1;" vertex="1" parent="1">
          <mxGeometry x="500" y="320" width="100" height="50" as="geometry" />
        </mxCell>
        <mxCell id="Xe0wiIXYGhP834AWc3GN-27" style="edgeStyle=orthogonalEdgeStyle;rounded=0;orthogonalLoop=1;jettySize=auto;html=1;exitX=0.75;exitY=0;exitDx=0;exitDy=0;entryX=0;entryY=0.3;entryDx=0;entryDy=0;" edge="1" parent="1" source="Xe0wiIXYGhP834AWc3GN-21" target="Xe0wiIXYGhP834AWc3GN-7">
          <mxGeometry relative="1" as="geometry" />
        </mxCell>
        <mxCell id="Xe0wiIXYGhP834AWc3GN-21" value="Module" style="shape=module;align=left;spacingLeft=20;align=center;verticalAlign=top;whiteSpace=wrap;html=1;" vertex="1" parent="1">
          <mxGeometry x="510" y="210" width="100" height="50" as="geometry" />
        </mxCell>
        <mxCell id="Xe0wiIXYGhP834AWc3GN-22" value="Message Broker" style="shape=cylinder3;whiteSpace=wrap;html=1;boundedLbl=1;backgroundOutline=1;size=15;" vertex="1" parent="1">
          <mxGeometry x="830" y="180" width="30" height="290" as="geometry" />
        </mxCell>
        <mxCell id="Xe0wiIXYGhP834AWc3GN-24" style="edgeStyle=orthogonalEdgeStyle;rounded=0;orthogonalLoop=1;jettySize=auto;html=1;entryX=0.5;entryY=0;entryDx=0;entryDy=0;entryPerimeter=0;" edge="1" parent="1" source="Xe0wiIXYGhP834AWc3GN-21" target="Xe0wiIXYGhP834AWc3GN-22">
          <mxGeometry relative="1" as="geometry">
            <Array as="points">
              <mxPoint x="560" y="160" />
              <mxPoint x="845" y="160" />
            </Array>
          </mxGeometry>
        </mxCell>
        <mxCell id="Xe0wiIXYGhP834AWc3GN-25" style="edgeStyle=orthogonalEdgeStyle;rounded=0;orthogonalLoop=1;jettySize=auto;html=1;exitX=0;exitY=0;exitDx=0;exitDy=80;exitPerimeter=0;entryX=0.938;entryY=0.913;entryDx=0;entryDy=0;entryPerimeter=0;" edge="1" parent="1" source="Xe0wiIXYGhP834AWc3GN-22" target="Xe0wiIXYGhP834AWc3GN-21">
          <mxGeometry relative="1" as="geometry" />
        </mxCell>
      </root>
    </mxGraphModel>
  </diagram>
</mxfile>
